<svg width="25" height="25" viewBox="0 0 25 25" fill="none" xmlns="http://www.w3.org/2000/svg">
<path fill-rule="evenodd" clip-rule="evenodd" d="M6.37252 3.49658C6.37252 5.70664 4.58091 7.49825 2.37085 7.49825C4.58091 7.49825 6.37252 9.28986 6.37252 11.4999C6.37252 9.28986 8.16412 7.49825 10.3742 7.49825C8.16412 7.49825 6.37252 5.70664 6.37252 3.49658Z" stroke="#4B5563" stroke-width="1.5" stroke-linecap="round" stroke-linejoin="round"/>
<path fill-rule="evenodd" clip-rule="evenodd" d="M17.3771 15.5012C17.3771 12.7387 15.1376 10.4992 12.375 10.4992C15.1376 10.4992 17.3771 8.25964 17.3771 5.49707C17.3771 8.25964 19.6166 10.4992 22.3792 10.4992C19.6166 10.4992 17.3771 12.7387 17.3771 15.5012Z" stroke="#4B5563" stroke-width="1.5" stroke-linecap="round" stroke-linejoin="round"/>
<path d="M17.3772 15.5015V16.5019" stroke="#4B5563" stroke-width="1.5" stroke-linecap="round" stroke-linejoin="round"/>
<path d="M17.3772 5.497V4.49658" stroke="#4B5563" stroke-width="1.5" stroke-linecap="round" stroke-linejoin="round"/>
<path d="M10.3742 21.5039V22.5043" stroke="#4B5563" stroke-width="1.5" stroke-linecap="round" stroke-linejoin="round"/>
<path d="M10.3742 14.5009V13.5005" stroke="#4B5563" stroke-width="1.5" stroke-linecap="round" stroke-linejoin="round"/>
<path d="M6.37252 11.4995V12.4999" stroke="#4B5563" stroke-width="1.5" stroke-linecap="round" stroke-linejoin="round"/>
<path d="M6.37252 2.49609V3.49651" stroke="#4B5563" stroke-width="1.5" stroke-linecap="round" stroke-linejoin="round"/>
<path fill-rule="evenodd" clip-rule="evenodd" d="M10.3742 14.001C10.3742 16.211 8.58262 18.0026 6.37256 18.0026C8.58262 18.0026 10.3742 19.7943 10.3742 22.0043C10.3742 19.7943 12.1658 18.0026 14.3759 18.0026C12.1658 18.0026 10.3742 16.211 10.3742 14.001Z" stroke="#4B5563" stroke-width="1.5" stroke-linecap="round" stroke-linejoin="round"/>
</svg>
