<svg width="12" height="12" viewBox="0 0 12 12" fill="none" xmlns="http://www.w3.org/2000/svg">
<path d="M4.25 8.89015V3.98165C4.25 3.77415 4.378 3.58815 4.572 3.51465L8.822 1.89565C9.1495 1.77065 9.5 2.01265 9.5 2.36265V7.88715" stroke="#9333EA" stroke-width="1.5" stroke-linecap="round" stroke-linejoin="round"/>
<path d="M9.13388 7.00381C9.62204 7.49197 9.62204 8.28342 9.13388 8.77158C8.64573 9.25973 7.85427 9.25973 7.36612 8.77158C6.87796 8.28342 6.87796 7.49197 7.36612 7.00381C7.85427 6.51566 8.64573 6.51566 9.13388 7.00381" stroke="#9333EA" stroke-width="1.5" stroke-linecap="round" stroke-linejoin="round"/>
<path d="M3.88388 8.00381C4.37204 8.49197 4.37204 9.28342 3.88388 9.77158C3.39573 10.2597 2.60427 10.2597 2.11612 9.77158C1.62796 9.28342 1.62796 8.49197 2.11612 8.00381C2.60427 7.51566 3.39573 7.51566 3.88388 8.00381" stroke="#9333EA" stroke-width="1.5" stroke-linecap="round" stroke-linejoin="round"/>
</svg>
