<svg width="24" height="24" viewBox="0 0 24 24" fill="none" xmlns="http://www.w3.org/2000/svg">
<path fill-rule="evenodd" clip-rule="evenodd" d="M19.9969 21H4.00293C2.89793 21 2.00293 20.105 2.00293 19V5C2.00293 3.895 2.89793 3 4.00293 3H19.9969C21.1019 3 21.9969 3.895 21.9969 5V19C21.9969 20.105 21.1009 21 19.9969 21Z" stroke="#9333EA" stroke-width="1.5" stroke-linecap="round" stroke-linejoin="round"/>
<path d="M9.41422 7.58579C10.1953 8.36684 10.1953 9.63317 9.41422 10.4142C8.63317 11.1953 7.36684 11.1953 6.58579 10.4142C5.80474 9.63317 5.80474 8.36684 6.58579 7.58579C7.36684 6.80474 8.63317 6.80474 9.41422 7.58579" stroke="#9333EA" stroke-width="1.5" stroke-linecap="round" stroke-linejoin="round"/>
<path d="M22 15.9999L17.781 12.6249C17.35 12.2799 16.72 12.3499 16.375 12.7809L13.039 16.9509C12.694 17.3819 12.065 17.4519 11.633 17.1069L9.765 15.6119C9.34 15.2719 8.721 15.3339 8.372 15.7529L4 20.9999" stroke="#9333EA" stroke-width="1.5" stroke-linecap="round" stroke-linejoin="round"/>
</svg>
